<svg width="24" height="20" viewBox="0 0 24 20" fill="none" xmlns="http://www.w3.org/2000/svg">
<path d="M7.40164 17.856L7.02683 17.4315L1.41643 11.0772C1.3062 10.9636 1.1749 10.9138 1.05243 10.9162C0.927792 10.9187 0.794537 10.9757 0.685618 11.0991C0.575085 11.2243 0.503219 11.4046 0.500105 11.6046C0.497036 11.8016 0.561289 11.9833 0.666202 12.1139L7.02637 19.3173L7.40164 17.856ZM7.40164 17.856L7.77646 17.4315M7.40164 17.856L7.77646 17.4315M7.77646 17.4315L22.5836 0.661033C22.6938 0.547439 22.8251 0.49764 22.9476 0.500087C23.0722 0.502578 23.2055 0.55959 23.3144 0.682949C23.4249 0.808139 23.4968 0.988502 23.4999 1.18845C23.503 1.38546 23.4387 1.56721 23.3338 1.69773L7.77692 19.3173L7.77646 17.4315ZM7.40164 19.5C7.2745 19.5 7.13792 19.4434 7.02657 19.3176H7.77672C7.66537 19.4434 7.52878 19.5 7.40164 19.5Z" fill="#4B69A4" stroke="#4B69A4"/>
</svg>
