<svg width="36" height="36" viewBox="0 0 36 36" fill="none" xmlns="http://www.w3.org/2000/svg">
<path d="M31.4713 9.50729C31.6389 9.66768 31.7719 9.85823 31.8626 10.068C31.9533 10.2778 32 10.5027 32 10.7298C32 10.9569 31.9533 11.1818 31.8626 11.3916C31.7719 11.6014 31.6389 11.7919 31.4713 11.9523L15.2746 27.4927C15.1074 27.6535 14.9088 27.7811 14.6902 27.8681C14.4715 27.9552 14.2372 28 14.0004 28C13.7637 28 13.5293 27.9552 13.3107 27.8681C13.0921 27.7811 12.8935 27.6535 12.7263 27.4927L5.52777 20.5859C5.18984 20.2616 5 19.8219 5 19.3634C5 18.9048 5.18984 18.4651 5.52777 18.1408C5.86569 17.8166 6.32401 17.6345 6.80191 17.6345C7.2798 17.6345 7.73813 17.8166 8.07605 18.1408L14.0004 23.8286L28.923 9.50729C29.0902 9.34648 29.2888 9.2189 29.5074 9.13186C29.726 9.04481 29.9604 9 30.1971 9C30.4339 9 30.6683 9.04481 30.8869 9.13186C31.1055 9.2189 31.3041 9.34648 31.4713 9.50729Z" fill="#4B69A4"/>
</svg>
