<svg width="36" height="36" viewBox="0 0 36 36" fill="none" xmlns="http://www.w3.org/2000/svg">
<path d="M23.632 3.93152C24.2286 3.33507 25.0377 3 25.8813 3C26.7249 3 27.534 3.33507 28.1306 3.93152L32.0677 7.86872C32.3633 8.16418 32.5977 8.51497 32.7577 8.90106C32.9177 9.28715 33 9.70098 33 10.1189C33 10.5368 32.9177 10.9506 32.7577 11.3367C32.5977 11.7228 32.3633 12.0736 32.0677 12.3691L13.149 31.2883L3 33L4.71323 22.8508L23.632 3.93152ZM23.2677 8.79456L27.2048 12.7318L29.8184 10.1181L25.8813 6.18249L23.2677 8.79456ZM24.9539 14.9827L21.0184 11.0455L7.68157 24.3827L6.88142 29.1185L11.6171 28.3199L24.9539 14.9827Z" fill="#4B69A4"/>
</svg>
