<svg width="24" height="24" viewBox="0 0 24 24" fill="none" xmlns="http://www.w3.org/2000/svg">
<path d="M10.2363 18.1266L10.2367 18.127C10.2916 18.1818 10.3352 18.247 10.365 18.3187C10.3947 18.3905 10.41 18.4673 10.41 18.545C10.41 18.6226 10.3947 18.6995 10.365 18.7712C10.3352 18.843 10.2917 18.9081 10.2367 18.963L10.2365 18.9632L5.87311 23.3265L5.87291 23.3267C5.81803 23.3816 5.75287 23.4252 5.68114 23.455C5.60942 23.4847 5.53253 23.5 5.45488 23.5C5.37722 23.5 5.30034 23.4847 5.22861 23.455C5.15688 23.4252 5.09172 23.3816 5.03684 23.3267L5.03665 23.3265L0.673231 18.9632C0.61831 18.9083 0.574744 18.8431 0.545021 18.7713C0.515298 18.6996 0.5 18.6227 0.5 18.545C0.5 18.4673 0.515298 18.3904 0.545021 18.3187C0.574744 18.2469 0.61831 18.1817 0.673231 18.1268C0.784151 18.0159 0.934592 17.9535 1.09146 17.9535C1.16913 17.9535 1.24604 17.9688 1.31781 17.9986C1.38953 18.0283 1.45469 18.0718 1.50959 18.1267C1.50963 18.1267 1.50966 18.1267 1.50969 18.1268L4.01038 20.6288L4.86402 21.4829V20.2753V1.09169C4.86402 0.934995 4.92627 0.784716 5.03708 0.673913C5.14788 0.563109 5.29817 0.500858 5.45488 0.500858C5.61158 0.500858 5.76187 0.563109 5.87268 0.673913C5.98348 0.784716 6.04573 0.934995 6.04573 1.09169V20.2753V21.4829L6.89938 20.6288L9.40016 18.1267L9.40026 18.1266C9.45513 18.0716 9.5203 18.0281 9.59203 17.9983C9.66375 17.9686 9.74064 17.9533 9.81829 17.9533C9.89594 17.9533 9.97283 17.9686 10.0446 17.9983C10.1163 18.0281 10.1814 18.0716 10.2363 18.1266ZM18.9632 0.673287L18.9634 0.673483L23.3268 5.03681C23.4377 5.14772 23.5 5.29816 23.5 5.45501C23.5 5.61187 23.4377 5.7623 23.3268 5.87322C23.2158 5.98414 23.0654 6.04645 22.9085 6.04645C22.7517 6.04645 22.6013 5.98417 22.4904 5.87332C22.4904 5.87328 22.4903 5.87325 22.4903 5.87322L19.9896 3.37122L19.136 2.51713V3.72468V22.9083C19.136 23.065 19.0737 23.2153 18.9629 23.3261C18.8521 23.4369 18.7018 23.4991 18.5451 23.4991C18.3884 23.4991 18.2381 23.4369 18.1273 23.3261C18.0165 23.2153 17.9543 23.065 17.9543 22.9083V3.72468V2.51713L17.1006 3.37122L14.5999 5.87322C14.5999 5.87324 14.5999 5.87327 14.5999 5.87329C14.5999 5.8733 14.5998 5.87331 14.5998 5.87332C14.4889 5.98417 14.3385 6.04645 14.1817 6.04645C14.0248 6.04645 13.8744 5.98414 13.7635 5.87322C13.6526 5.7623 13.5902 5.61187 13.5902 5.45501C13.5902 5.29816 13.6526 5.14772 13.7635 5.03681L18.1269 0.673484L18.1271 0.673287C18.182 0.618352 18.2471 0.574772 18.3189 0.545039C18.3906 0.515305 18.4675 0.5 18.5451 0.5C18.6228 0.5 18.6997 0.515304 18.7714 0.545039C18.8431 0.574774 18.9083 0.618356 18.9632 0.673287Z" fill="#4B69A4" stroke="#4B69A4"/>
</svg>
