<svg width="24" height="28" viewBox="0 0 24 28" fill="none" xmlns="http://www.w3.org/2000/svg">
<path d="M5.5 26L5.5 2M5.5 26L1 22M5.5 26L10 22" stroke="#4B69A4" stroke-width="2" stroke-linecap="round" stroke-linejoin="round"/>
<path d="M15.088 5.032V2.68L20.464 1.592V13H17.856V4.344L15.088 5.032ZM21.232 19.736C21.232 19.352 21.1467 19.0213 20.976 18.744C20.816 18.456 20.592 18.2373 20.304 18.088C20.0267 17.928 19.712 17.848 19.36 17.848C18.9973 17.848 18.672 17.928 18.384 18.088C18.1067 18.2373 17.8827 18.456 17.712 18.744C17.552 19.0213 17.472 19.352 17.472 19.736C17.472 20.1093 17.552 20.44 17.712 20.728C17.8827 21.016 18.1067 21.24 18.384 21.4C18.672 21.56 18.9973 21.64 19.36 21.64C19.712 21.64 20.0267 21.56 20.304 21.4C20.592 21.24 20.816 21.016 20.976 20.728C21.1467 20.44 21.232 20.1093 21.232 19.736ZM19.376 26.952H15.952L19.584 22.904L20.128 22.664C19.8293 22.952 19.5413 23.144 19.264 23.24C18.9973 23.3253 18.6613 23.368 18.256 23.368C17.84 23.368 17.424 23.288 17.008 23.128C16.6027 22.9573 16.2347 22.7173 15.904 22.408C15.5733 22.088 15.3067 21.704 15.104 21.256C14.9013 20.808 14.8 20.3013 14.8 19.736C14.8 18.808 15.0027 18.0347 15.408 17.416C15.824 16.7973 16.3733 16.3333 17.056 16.024C17.7493 15.704 18.5173 15.544 19.36 15.544C20.192 15.544 20.9493 15.704 21.632 16.024C22.3253 16.3333 22.8747 16.7973 23.28 17.416C23.696 18.0347 23.904 18.808 23.904 19.736C23.904 20.3333 23.776 20.888 23.52 21.4C23.2747 21.912 22.9707 22.392 22.608 22.84L19.376 26.952Z" fill="#4B69A4"/>
</svg>
