<svg width="36" height="36" viewBox="0 0 36 36" fill="none" xmlns="http://www.w3.org/2000/svg">
<g clip-path="url(#clip0_12_128)">
<path d="M21.42 3C22.0496 3.00016 22.6633 3.19843 23.174 3.56671C23.6847 3.93499 24.0665 4.45463 24.2655 5.052L25.08 7.5H30C30.3978 7.5 30.7794 7.65804 31.0607 7.93934C31.342 8.22064 31.5 8.60218 31.5 9C31.5 9.39782 31.342 9.77936 31.0607 10.0607C30.7794 10.342 30.3978 10.5 30 10.5L29.9955 10.6065L28.695 28.821C28.6138 29.9559 28.1058 31.018 27.2731 31.7933C26.4403 32.5687 25.3448 32.9999 24.207 33H11.793C10.6552 32.9999 9.55966 32.5687 8.72695 31.7933C7.89424 31.018 7.38616 29.9559 7.305 28.821L6.0045 10.605L6 10.5C5.60218 10.5 5.22064 10.342 4.93934 10.0607C4.65804 9.77936 4.5 9.39782 4.5 9C4.5 8.60218 4.65804 8.22064 4.93934 7.93934C5.22064 7.65804 5.60218 7.5 6 7.5H10.92L11.7345 5.052C11.9335 4.45438 12.3157 3.93458 12.8266 3.56627C13.3376 3.19797 13.9516 2.99985 14.5815 3H21.42ZM26.9955 10.5H9.0045L10.2975 28.6065C10.3244 28.9848 10.4937 29.3389 10.7711 29.5974C11.0486 29.856 11.4137 29.9998 11.793 30H24.207C24.5863 29.9998 24.9514 29.856 25.2289 29.5974C25.5063 29.3389 25.6756 28.9848 25.7025 28.6065L26.9955 10.5ZM15 15C15.3674 15 15.722 15.1349 15.9966 15.3791C16.2711 15.6232 16.4465 15.9596 16.4895 16.3245L16.5 16.5V24C16.4996 24.3823 16.3532 24.75 16.0907 25.0281C15.8283 25.3061 15.4696 25.4734 15.0879 25.4958C14.7062 25.5182 14.3304 25.394 14.0373 25.1486C13.7441 24.9032 13.5557 24.5551 13.5105 24.1755L13.5 24V16.5C13.5 16.1022 13.658 15.7206 13.9393 15.4393C14.2206 15.158 14.6022 15 15 15ZM21 15C21.3978 15 21.7794 15.158 22.0607 15.4393C22.342 15.7206 22.5 16.1022 22.5 16.5V24C22.5 24.3978 22.342 24.7794 22.0607 25.0607C21.7794 25.342 21.3978 25.5 21 25.5C20.6022 25.5 20.2206 25.342 19.9393 25.0607C19.658 24.7794 19.5 24.3978 19.5 24V16.5C19.5 16.1022 19.658 15.7206 19.9393 15.4393C20.2206 15.158 20.6022 15 21 15ZM21.42 6H14.58L14.0805 7.5H21.9195L21.42 6Z" fill="#4B69A4"/>
</g>
<defs>
<clipPath id="clip0_12_128">
<rect width="36" height="36" fill="white"/>
</clipPath>
</defs>
</svg>
